HIERARCHY
ROOT Hips
{
	OFFSET -0.001795 -0.223333 0.028219
	CHANNELS 6 Xposition Yposition Zposition Zrotation Yrotation Xrotation 
	JOINT LeftUpLeg
	{
		OFFSET 0.069520 -0.091406 -0.006815
		CHANNELS 3 Zrotation Yrotation Xrotation
		JOINT LeftLeg
		{
			OFFSET 0.034277 -0.375199 -0.004496
			CHANNELS 3 Zrotation Yrotation Xrotation
			JOINT LeftFoot
			{
				OFFSET -0.013596 -0.397961 -0.043693
				CHANNELS 3 Zrotation Yrotation Xrotation
				JOINT LeftToe
				{
					OFFSET 0.026358 -0.055791 0.119288
					CHANNELS 3 Zrotation Yrotation Xrotation
					End Site
					{
						OFFSET 0.000000 0.000000 0.000000
					}
				}
			}
		}
	}
	JOINT RightUpLeg
	{
		OFFSET -0.067670 -0.090522 -0.004320
		CHANNELS 3 Zrotation Yrotation Xrotation
		JOINT RightLeg
		{
			OFFSET -0.038290 -0.382569 -0.008850
			CHANNELS 3 Zrotation Yrotation Xrotation
			JOINT RightFoot
			{
				OFFSET 0.015774 -0.398415 -0.042312
				CHANNELS 3 Zrotation Yrotation Xrotation
				JOINT RightToe
				{
					OFFSET -0.025372 -0.048144 0.123348
					CHANNELS 3 Zrotation Yrotation Xrotation
					End Site
					{
						OFFSET 0.000000 0.000000 0.000000
					}
				}
			}
		}
	}
	JOINT Spine
	{
		OFFSET -0.002533 0.108963 -0.026696
		CHANNELS 3 Zrotation Yrotation Xrotation
		JOINT Spine1
		{
			OFFSET 0.005487 0.135180 0.001092
			CHANNELS 3 Zrotation Yrotation Xrotation
			JOINT Spine2
			{
				OFFSET 0.001457 0.052922 0.025425
				CHANNELS 3 Zrotation Yrotation Xrotation
				JOINT Neck
				{
					OFFSET -0.002778 0.213870 -0.042857
					CHANNELS 3 Zrotation Yrotation Xrotation
					JOINT Head
					{
						OFFSET 0.005152 0.064970 0.051349
						CHANNELS 3 Zrotation Yrotation Xrotation
						End Site
						{
							OFFSET 0.000000 0.000000 0.000000
						}
					}
				}
				JOINT LeftShoulder
				{
					OFFSET 0.078845 0.121749 -0.034090
					CHANNELS 3 Zrotation Yrotation Xrotation
					JOINT LeftArm
					{
						OFFSET 0.090977 0.030469 -0.008868
						CHANNELS 3 Zrotation Yrotation Xrotation
						JOINT LeftForeArm
						{
							OFFSET 0.259612 -0.012772 -0.027456
							CHANNELS 3 Zrotation Yrotation Xrotation
							JOINT LeftHand
							{
								OFFSET 0.249234 0.008986 -0.001171
								CHANNELS 3 Zrotation Yrotation Xrotation
								End Site
								{
									OFFSET 0.000000 0.000000 0.000000
								}
							}
						}
					}
				}
				JOINT RightShoulder
				{
					OFFSET -0.081759 0.118833 -0.038615
					CHANNELS 3 Zrotation Yrotation Xrotation
					JOINT RightArm
					{
						OFFSET -0.096012 0.032551 -0.009143
						CHANNELS 3 Zrotation Yrotation Xrotation
						JOINT RightForeArm
						{
							OFFSET -0.253742 -0.013329 -0.021401
							CHANNELS 3 Zrotation Yrotation Xrotation
							JOINT RightHand
							{
								OFFSET -0.255298 0.007772 -0.005559
								CHANNELS 3 Zrotation Yrotation Xrotation
								End Site
								{
									OFFSET 0.000000 0.000000 0.000000
								}
							}
						}
					}
				}
			}
		}
	}
}
MOTION
Frames: 16
Frame Time: 0.050000
-0.139965 0.950795 0.119343 -5.242429 -58.840884 -1.105404 7.299390 1.528606 -4.300464 -5.060659 3.965354 13.612201 7.489522 14.204653 6.351375 0.000000 0.000000 0.000000 3.853163 0.174772 -4.520293 -0.812348 2.849684 18.367871 -2.657427 -9.303425 5.778253 0.000000 0.000000 0.000000 4.383779 0.791920 20.979809 -6.100108 0.617167 -19.669519 -3.073412 -0.412633 31.886872 15.042804 -10.693121 -30.571412 0.000000 0.000000 0.000000 -6.403611 -12.086125 8.554994 -39.365517 -24.201328 1.881845 -127.035284 -61.297146 126.641504 0.000000 0.000000 0.000000 13.651019 4.940508 -6.806658 48.403925 16.528552 0.400795 115.334979 54.118901 59.016464 0.000000 0.000000 0.000000 
-0.136903 0.951485 0.110656 -5.870342 -60.738527 -0.497370 7.522121 1.684242 -4.410435 -4.972913 3.858483 12.814864 7.016703 13.044256 6.690407 0.000000 0.000000 0.000000 4.159965 0.264888 -5.470000 -0.276997 3.174559 19.657880 -2.525491 -9.383362 6.143010 0.000000 0.000000 0.000000 4.607763 0.899478 21.350399 -5.769170 0.459930 -19.704406 -2.894498 -0.892485 32.058152 14.655090 -10.557493 -31.102673 0.000000 0.000000 0.000000 -5.898024 -12.094282 8.544177 -39.367358 -23.969394 1.962684 -129.274878 -60.836465 130.288586 0.000000 0.000000 0.000000 13.464171 5.268599 -7.107158 47.992929 15.738385 0.271101 115.908116 54.084727 58.395165 0.000000 0.000000 0.000000 
-0.134055 0.952407 0.103149 -6.161796 -63.128127 -0.132760 7.341266 1.744183 -4.257674 -4.884729 3.848999 12.219506 6.579216 11.953927 7.134589 0.000000 0.000000 0.000000 3.918867 0.375151 -6.441902 0.613903 3.597535 21.305939 -2.738305 -9.861210 6.440692 0.000000 0.000000 0.000000 4.742601 1.050697 21.668426 -5.626673 0.349952 -19.843942 -2.797492 -0.837327 32.287582 14.266116 -10.394939 -31.653697 0.000000 0.000000 0.000000 -4.560645 -12.190953 8.106644 -40.091720 -23.970527 2.477727 -131.492761 -60.291966 134.141095 0.000000 0.000000 0.000000 12.901957 5.178933 -7.349418 47.902899 14.891267 -0.026345 116.798189 52.990752 56.532766 0.000000 0.000000 0.000000 
-0.132095 0.952760 0.096588 -6.249010 -65.083393 -0.316824 7.070249 1.758489 -3.995911 -4.975373 3.892505 11.714914 6.172022 10.966243 7.585889 0.000000 0.000000 0.000000 3.072990 0.441504 -6.904245 2.856339 4.031722 23.703236 -4.313724 -12.664323 7.371860 0.000000 0.000000 0.000000 5.302470 1.182473 22.254019 -5.654982 0.316173 -20.118265 -2.802254 -1.865426 32.413406 13.386022 -9.994830 -32.798274 0.000000 0.000000 0.000000 -4.661970 -12.241252 8.437138 -40.620548 -24.130869 2.790166 -133.164387 -59.533314 136.715099 0.000000 0.000000 0.000000 12.175631 5.803097 -7.271860 47.376498 14.456099 -0.133775 118.731366 52.643982 56.446092 0.000000 0.000000 0.000000 
-0.131131 0.951514 0.090538 -6.542115 -67.029391 -0.308136 6.615871 1.718419 -3.475933 -4.610085 3.781351 11.323310 5.936230 10.494064 7.711102 0.000000 0.000000 0.000000 2.405524 0.458387 -6.947668 4.727807 4.456411 25.706922 -6.355593 -15.794345 8.448886 0.000000 0.000000 0.000000 5.888856 1.239703 22.490324 -5.364627 0.173604 -20.424050 -2.932185 -2.230158 32.823905 13.170650 -10.095788 -32.667975 0.000000 0.000000 0.000000 -5.294603 -11.891640 8.826677 -40.949365 -24.829894 3.101522 -135.489734 -58.366734 139.914068 0.000000 0.000000 0.000000 11.966320 6.166715 -7.472697 46.453085 13.920797 -0.218465 120.725887 52.021980 56.704167 0.000000 0.000000 0.000000 
-0.130372 0.949286 0.084269 -6.251675 -68.847525 -1.521810 6.134938 1.678862 -2.874971 -3.999519 3.735971 11.571255 5.394624 9.453258 7.925727 0.000000 0.000000 0.000000 2.279912 0.294340 -5.386423 4.559930 4.777888 26.366330 -7.407326 -16.943043 8.952815 0.000000 0.000000 0.000000 6.325307 1.518686 23.532531 -5.135320 0.078176 -20.836196 -3.243335 -2.539730 33.074079 13.051029 -10.040255 -33.503456 0.000000 0.000000 0.000000 -5.790495 -11.871264 9.216507 -41.507886 -25.927587 3.675801 -137.847467 -57.332349 143.087445 0.000000 0.000000 0.000000 11.161849 6.348964 -7.185235 46.918321 15.104347 -0.107758 122.848625 52.501062 58.927147 0.000000 0.000000 0.000000 
-0.128389 0.946624 0.077440 -6.878152 -70.995671 -2.073623 6.262048 1.841305 -2.956884 -3.778099 4.359984 13.343868 5.032284 9.261277 7.011084 0.000000 0.000000 0.000000 2.271260 0.150528 -3.490137 4.394570 4.901993 26.369217 -8.552109 -17.663364 8.793075 0.000000 0.000000 0.000000 7.162128 1.789786 24.653305 -5.110985 -0.015390 -20.509188 -3.117113 -2.850810 32.552190 12.511131 -9.964828 -33.196444 0.000000 0.000000 0.000000 -6.938646 -11.538971 9.859881 -42.777405 -27.214692 4.298757 -138.878672 -57.293103 144.850202 0.000000 0.000000 0.000000 10.674830 6.656810 -6.999643 48.156123 16.864332 0.310696 123.774916 53.636392 61.085077 0.000000 0.000000 0.000000 
-0.124078 0.942826 0.070004 -7.593059 -73.350573 -2.477071 6.541361 2.078074 -3.329626 -3.304139 5.205842 15.697376 3.990454 8.091839 5.554124 0.000000 0.000000 0.000000 2.748200 0.065830 -2.282942 4.055483 5.345653 27.125193 -9.214104 -17.751701 8.335704 0.000000 0.000000 0.000000 7.897883 2.181697 25.953125 -4.781371 -0.169436 -20.594811 -3.313394 -2.712216 32.618105 12.102562 -9.676079 -34.709075 0.000000 0.000000 0.000000 -7.859245 -11.675271 10.606602 -43.316474 -28.264057 4.677800 -143.510744 -57.744892 152.894158 0.000000 0.000000 0.000000 10.256085 6.596786 -7.048725 49.709374 19.002778 0.820882 123.424616 55.124644 62.514824 0.000000 0.000000 0.000000 
-0.117394 0.939607 0.062433 -9.419353 -76.593751 -1.265514 7.087333 2.492967 -4.065722 -3.040801 6.215530 17.573196 3.652869 7.961975 4.699686 0.000000 0.000000 0.000000 2.991677 0.054607 -2.153648 4.682880 5.807321 28.069116 -10.289642 -18.300923 8.117132 0.000000 0.000000 0.000000 8.774372 2.644110 27.206099 -4.738111 -0.281512 -20.507663 -3.508884 -2.566220 32.297877 11.557419 -9.554124 -35.042604 0.000000 0.000000 0.000000 -8.827187 -11.556809 11.416788 -44.685053 -29.676624 5.454730 -148.399776 -58.903620 162.180813 0.000000 0.000000 0.000000 10.284077 7.308089 -7.323821 51.096580 21.162444 1.660484 122.043973 57.763398 64.271607 0.000000 0.000000 0.000000 
-0.109242 0.938962 0.055106 -11.923356 -79.908771 0.617961 7.794693 2.943377 -3.350147 -2.825868 6.951836 18.428984 3.140078 7.270468 4.703620 0.000000 0.000000 0.000000 3.309829 0.032491 -1.544545 4.361137 6.060842 27.980838 -11.153202 -18.613368 8.465871 0.000000 0.000000 0.000000 9.555505 3.101739 28.228582 -5.023907 -0.313598 -20.893330 -3.683356 -2.974708 32.022159 10.853963 -9.218200 -36.383911 0.000000 0.000000 0.000000 -9.597766 -11.620245 12.389618 -46.036261 -30.383525 6.026406 -152.098442 -60.096999 169.492811 0.000000 0.000000 0.000000 10.974904 8.362970 -8.248716 51.107795 21.661190 2.408237 118.876161 59.566853 62.533892 0.000000 0.000000 0.000000 
-0.100961 0.942751 0.047962 -19.518698 -83.599433 7.945112 8.006416 3.232659 -2.431035 -2.541559 7.119274 17.970782 2.985072 7.029498 5.371998 0.000000 0.000000 0.000000 4.004224 -0.001889 -0.583433 4.199828 6.010403 27.118204 -10.799855 -17.454813 8.500748 0.000000 0.000000 0.000000 9.423619 3.311682 27.909935 -4.580920 -0.577071 -20.289877 -4.003385 -2.434962 32.027623 10.510741 -9.134794 -36.927726 0.000000 0.000000 0.000000 -9.087775 -11.686314 12.583039 -48.043177 -31.197468 7.334989 -159.645360 -61.436261 -176.332583 0.000000 0.000000 0.000000 11.292481 9.072192 -9.076057 50.905770 22.139833 2.847937 117.858821 61.721757 63.885214 0.000000 0.000000 0.000000 
-0.092825 0.948888 0.040859 -47.196672 -87.495084 35.347094 8.065978 3.533272 -1.113805 -2.482260 6.587876 15.764862 2.449135 5.532927 7.632590 0.000000 0.000000 0.000000 4.653412 0.049264 1.318498 2.279510 5.261228 23.968559 -8.711452 -13.997474 7.813229 0.000000 0.000000 0.000000 9.620833 3.587061 27.741621 -4.175325 -0.764017 -20.088525 -4.824556 -2.359807 31.383744 11.043867 -9.460682 -36.420257 0.000000 0.000000 0.000000 -9.006295 -11.340316 13.001345 -49.032758 -31.866196 8.249796 -161.691821 -63.592225 -172.201931 0.000000 0.000000 0.000000 10.916591 9.837831 -9.690237 51.060603 21.578707 2.725668 114.091008 61.497040 58.672667 0.000000 0.000000 0.000000 
-0.084028 0.953068 0.034222 -172.405075 -85.482747 161.390679 8.117550 4.061580 -0.250424 -3.472294 7.221978 14.161448 4.294628 8.116680 9.373123 0.000000 0.000000 0.000000 3.660580 0.231326 1.006863 1.212333 5.506835 23.482023 -8.084940 -11.056365 6.481200 0.000000 0.000000 0.000000 7.607325 3.785506 26.638788 -3.663329 -1.084630 -21.127259 -4.881350 -0.271643 30.540283 10.092091 -9.438229 -37.081225 0.000000 0.000000 0.000000 -10.366189 -11.268106 14.720684 -46.340919 -30.643112 6.510622 -164.967494 -64.125581 -167.263181 0.000000 0.000000 0.000000 12.710251 10.980337 -12.185595 49.326724 18.604719 2.838432 111.177860 58.566586 51.734071 0.000000 0.000000 0.000000 
-0.073565 0.953927 0.028267 -178.906677 -81.352743 166.599819 7.500925 4.117251 0.667542 -2.641164 8.339748 15.810903 0.445134 5.468345 4.741643 0.000000 0.000000 0.000000 4.062338 0.637823 3.878763 -0.108502 4.429262 20.181329 -7.485992 -8.773311 6.039480 0.000000 0.000000 0.000000 9.029055 4.421218 27.663114 -5.334519 -0.797641 -21.635702 -4.378631 -2.943360 30.494724 8.407342 -9.363260 -34.334609 0.000000 0.000000 0.000000 -11.367103 -12.468522 17.612846 -45.600155 -31.555491 6.554910 -169.342506 -66.002512 -160.979430 0.000000 0.000000 0.000000 10.878367 10.906526 -12.901569 50.443158 18.308401 2.601435 110.805474 57.696409 47.530596 0.000000 0.000000 0.000000 
-0.061389 0.951461 0.023771 -179.491363 -76.094804 166.962375 5.705957 3.803422 2.062084 -2.109119 7.476087 13.338286 -3.239820 1.458976 5.929076 0.000000 0.000000 0.000000 4.578810 0.910902 4.941418 -1.817861 3.907175 18.002170 -6.096337 -5.617110 5.249147 0.000000 0.000000 0.000000 9.431107 4.578568 27.357362 -5.111879 -0.939861 -22.975282 -5.957450 -3.352950 31.881720 10.602942 -9.203830 -36.847731 0.000000 0.000000 0.000000 -11.438547 -10.390513 18.052393 -44.809196 -33.357909 7.622437 -173.064214 -66.308340 -154.431599 0.000000 0.000000 0.000000 11.603565 13.658558 -15.469453 49.739536 15.613196 2.459021 112.979593 54.979814 45.390501 0.000000 0.000000 0.000000 
-0.047439 0.948407 0.020582 -179.587497 -69.607407 167.474748 4.276846 3.656808 2.484539 -1.155988 6.845398 11.635094 -2.936418 4.148674 5.266400 0.000000 0.000000 0.000000 4.459476 1.028692 4.176809 -2.100383 3.738344 16.858708 -5.817309 -3.494349 5.530434 0.000000 0.000000 0.000000 8.409337 5.359439 27.691554 -3.770151 -1.114848 -23.478352 -5.220631 -3.781462 30.071270 8.850952 -8.844982 -33.624111 0.000000 0.000000 0.000000 -13.715206 -10.972125 22.412624 -42.013115 -34.300981 6.452759 -178.208708 -67.287057 -149.009626 0.000000 0.000000 0.000000 10.980821 15.509771 -17.073312 48.538117 11.246330 1.419522 114.806822 52.615420 42.447001 0.000000 0.000000 0.000000 
